<?xml version="1.0" encoding="UTF-8" standalone="no"?>
<svg
   xmlns:dc="http://purl.org/dc/elements/1.1/"
   xmlns:cc="http://creativecommons.org/ns#"
   xmlns:rdf="http://www.w3.org/1999/02/22-rdf-syntax-ns#"
   xmlns:svg="http://www.w3.org/2000/svg"
   xmlns="http://www.w3.org/2000/svg"
   xmlns:sodipodi="http://sodipodi.sourceforge.net/DTD/sodipodi-0.dtd"
   xmlns:inkscape="http://www.inkscape.org/namespaces/inkscape"
   version="1.1"
   width="100"
   height="127.70499"
   id="svg3842"
   inkscape:version="0.48.4 r9939"
   sodipodi:docname="rpi_logo.svg">
  <metadata
     id="metadata3876">
    <rdf:RDF>
      <cc:Work
         rdf:about="">
        <dc:format>image/svg+xml</dc:format>
        <dc:type
           rdf:resource="http://purl.org/dc/dcmitype/StillImage" />
      </cc:Work>
    </rdf:RDF>
  </metadata>
  <defs
     id="defs3874" />
  <sodipodi:namedview
     pagecolor="#ffffff"
     bordercolor="#666666"
     borderopacity="1"
     objecttolerance="10"
     gridtolerance="10"
     guidetolerance="10"
     inkscape:pageopacity="0"
     inkscape:pageshadow="2"
     inkscape:window-width="918"
     inkscape:window-height="543"
     id="namedview3872"
     showgrid="false"
     fit-margin-top="0"
     fit-margin-left="0"
     fit-margin-right="0"
     fit-margin-bottom="0"
     inkscape:zoom="0.32777778"
     inkscape:cx="278.33681"
     inkscape:cy="357.37716"
     inkscape:window-x="391"
     inkscape:window-y="240"
     inkscape:window-maximized="0"
     inkscape:current-layer="svg3842" />
  <path
     d="m 27.069407,0.0014125 c -0.645779,0.02 -1.341258,0.2586 -2.129966,0.88098 -1.931817,-0.74516 -3.805318,-1.00403 -5.481039,0.51298 -2.586089,-0.33558 -3.427625,0.35699 -4.064779,1.16535 -0.56785,-0.0118 -4.249913,-0.58382 -5.9382573,1.93481 -4.243276,-0.50199 -5.584174,2.49581 -4.064778,5.29146 -0.866602,1.3415795 -1.76455,2.6669795 0.262064,5.2245495 -0.716919,1.42447 -0.272535,2.96974 1.41626,4.83982 -0.445684,2.00241 0.430378,3.41524 2.001722,4.51642 -0.293884,2.7402 2.5128713,4.33352 3.3510733,4.90116 0.321824,1.59668 0.99257,3.10331 4.198599,3.93653 0.528718,2.37951 2.455516,2.79042 4.321266,3.28974 -6.166764,3.58451 -11.4551013,8.30087 -11.4192963,19.87225 l -0.903284,1.61141 c -7.0711969,4.30049 -13.4328919,18.12212 -3.484892,29.35674 0.649806,3.5165 1.739585,6.04223 2.709852,8.83769 1.451292,11.264168 10.9228473,16.538638 13.4210183,17.162398 3.660693,2.78847 7.559606,5.43428 12.835557,7.2876 4.973665,5.12967 10.361919,7.08468 15.779593,7.08131 0.07943,-5e-5 0.160322,8.9e-4 0.239761,0 5.417676,0.003 10.805928,-1.95164 15.779594,-7.08131 5.27595,-1.85332 9.174863,-4.49913 12.835556,-7.2876 2.498171,-0.62376 11.969727,-5.89823 13.421018,-17.162398 0.970267,-2.79546 2.060041,-5.32119 2.709851,-8.83769 9.948,-11.23462 3.5863,-25.05625 -3.484891,-29.35674 l -0.903284,-1.61141 c 0.0358,-11.57138 -5.252532,-16.28774 -11.419296,-19.87225 1.865751,-0.49932 3.792548,-0.91023 4.321267,-3.28974 3.206028,-0.83322 3.876776,-2.33985 4.198598,-3.93653 0.838203,-0.56764 3.644958,-2.16096 3.351073,-4.90116 1.571345,-1.10118 2.447403,-2.51401 2.001722,-4.51642 1.688801,-1.87008 2.133181,-3.41535 1.416261,-4.83982 2.02661,-2.55757 1.12867,-3.88297 0.26206,-5.2245495 1.5194,-2.79565 0.1785,-5.79345 -4.064775,-5.29146 -1.688343,-2.51863 -5.370406,-1.94656 -5.938257,-1.93481 -0.637154,-0.80836 -1.47869,-1.50093 -4.064779,-1.16535 -1.675721,-1.51701 -3.549222,-1.25814 -5.481039,-0.51298 -2.294422,-1.81056 -3.813377,-0.35922 -5.547949,0.18958 -2.778787,-0.90779 -3.413838,0.33561 -4.778485,0.84195 -3.028834,-0.6402 -3.949577,0.75359 -5.402977,2.22476 l -1.689476,-0.0335 c -4.569599,2.69302 -6.839762,8.1764895 -7.64446,10.9955395 -0.805071,-2.8195 -3.070091,-8.3029995 -7.638885,-10.9955395 l -1.689476,0.0335 c -1.4534,-1.47117 -2.374143,-2.86496 -5.402977,-2.22476 -1.364647,-0.50634 -1.999697,-1.74974 -4.778485,-0.84195 -1.138313,-0.36015 -2.18513,-1.10882 -3.417983,-1.07056 z"
     style="fill:#000000"
     id="path3844"
     inkscape:connector-curvature="0" />
  <path
     d="m 17.972661,11.848812 c 12.123665,6.25053 19.171372,11.30671 23.032572,15.61312 -1.977385,7.92528 -12.29294,8.28695 -16.064736,8.06462 0.772305,-0.35948 1.416685,-0.79003 1.645184,-1.45163 -0.946462,-0.67263 -4.302379,-0.0709 -6.645251,-1.38711 0.899996,-0.18646 1.320977,-0.3681 1.741958,-1.03228 -2.213507,-0.70598 -4.597804,-1.31436 -6.000081,-2.4839 0.756752,0.009 1.463304,0.16929 2.451646,-0.51614 -1.982621,-1.06845 -4.098298,-1.91514 -5.742013,-3.54843 1.025098,-0.0251 2.130315,-0.0101 2.451646,-0.3871 -1.814676,-1.12421 -3.345718,-2.37448 -4.612966,-3.74199 1.434546,0.17317 2.040358,0.024 2.38713,-0.22581 -1.371707,-1.40496 -3.1077543,-2.59132 -3.9355383,-4.32264 1.065136,0.36711 2.0396383,0.50764 2.7419733,-0.0323 -0.466115,-1.05154 -2.4632523,-1.67178 -3.6129523,-4.12908 1.121296,0.10872 2.3105533,0.24464 2.5484213,0 -0.5214173,-2.12124 -1.4144683,-3.3133895 -2.2903533,-4.5484495 2.3998443,-0.0356 6.0357683,0.009 5.8710473,-0.19355 l -1.483891,-1.51615 c 2.344099,-0.63114 4.742693,0.10137 6.483959,0.64517 0.78184,-0.61695 -0.01385,-1.39708 -0.967755,-2.19358 1.992124,0.26597 3.792244,0.72394 5.419428,1.35485 0.869362,-0.78495 -0.564522,-1.56991 -1.258082,-2.35487 3.077743,0.58392 4.381648,1.40434 5.677498,2.22584 0.940191,-0.9012 0.05382,-1.66709 -0.580654,-2.45165 2.320555,0.85949 3.515855,1.96904 4.774258,3.06456 0.426652,-0.57579 1.08393,-0.99783 0.290327,-2.38713 1.647619,0.94972 2.888593,2.06887 3.806504,3.32263 1.019415,-0.64911 0.607341,-1.53679 0.612911,-2.35487 1.712297,1.39289 2.798954,2.87515 4.129089,4.32264 0.267942,-0.1951 0.502558,-0.85676 0.709686,-1.90325 4.085145,3.9631695 9.857335,13.9454995 1.483892,17.9034595 -7.122567,-5.87864 -15.63304,-10.15024 -25.064857,-13.35502 z"
     style="fill:#75a928"
     id="path3846"
     inkscape:connector-curvature="0" />
  <path
     d="m 82.301307,11.848812 c -12.123665,6.25053 -19.171372,11.30671 -23.032572,15.61312 1.977385,7.92528 12.29294,8.28695 16.064736,8.06462 -0.772305,-0.35948 -1.416685,-0.79003 -1.645184,-1.45163 0.946462,-0.67263 4.302379,-0.0709 6.645251,-1.38711 -0.899996,-0.18646 -1.320977,-0.3681 -1.741958,-1.03228 2.213507,-0.70598 4.597804,-1.31436 6.000081,-2.4839 -0.756753,0.009 -1.463304,0.16929 -2.451646,-0.51614 1.98262,-1.06845 4.098298,-1.91514 5.742013,-3.54843 -1.025098,-0.0251 -2.130314,-0.0101 -2.451646,-0.3871 1.814676,-1.12421 3.345718,-2.37448 4.612965,-3.74199 -1.434545,0.17317 -2.040357,0.024 -2.387128,-0.22581 1.371705,-1.40496 3.107754,-2.59132 3.935537,-4.32264 -1.065137,0.36711 -2.039638,0.50764 -2.741973,-0.0323 0.466116,-1.05154 2.463251,-1.67178 3.612953,-4.12908 -1.121297,0.10872 -2.310554,0.24464 -2.548423,0 0.521417,-2.12124 1.414469,-3.3133895 2.290354,-4.5484495 -2.399844,-0.0356 -6.035767,0.009 -5.871047,-0.19355 l 1.483891,-1.51615 c -2.3441,-0.63114 -4.742693,0.10137 -6.483959,0.64517 -0.78184,-0.61695 0.01385,-1.39708 0.967755,-2.19358 -1.992124,0.26597 -3.792244,0.72394 -5.419428,1.35485 -0.869362,-0.78495 0.564522,-1.56991 1.258082,-2.35487 -3.077743,0.58392 -4.381648,1.40434 -5.677498,2.22584 -0.940191,-0.9012 -0.05382,-1.66709 0.580654,-2.45165 -2.320555,0.85949 -3.515855,1.96904 -4.774258,3.06456 -0.426652,-0.57579 -1.08393,-0.99783 -0.290327,-2.38713 -1.647619,0.94972 -2.888593,2.06887 -3.806504,3.32263 -1.019415,-0.64911 -0.607341,-1.53679 -0.612911,-2.35487 -1.712297,1.39289 -2.798954,2.87515 -4.129089,4.32264 -0.267942,-0.1951 -0.502558,-0.85676 -0.709686,-1.90325 -4.085145,3.9631695 -9.857335,13.9454995 -1.483892,17.9034595 7.122567,-5.87864 15.63304,-10.15024 25.064857,-13.35502 z"
     style="fill:#75a928"
     id="path3848"
     inkscape:connector-curvature="0" />
  <path
     d="m 64.819342,92.552092 a 14.522153,13.391223 0 0 1 -29.044305,0 14.522153,13.391223 0 1 1 29.044305,0 z"
     style="fill:#bc1142"
     id="path3850"
     inkscape:connector-curvature="0" />
  <path
     d="M 41.892906,54.297702 A 13.024929,15.367818 34.034226 1 1 24.948128,79.939782 13.024929,15.367818 34.034226 0 1 41.892906,54.297702 z"
     style="fill:#bc1142"
     id="path3852"
     inkscape:connector-curvature="0" />
  <path
     d="M 58.13546,53.583992 A 15.367818,13.024929 55.965774 1 0 75.080238,79.226072 15.367818,13.024929 55.965774 0 0 58.13546,53.583992 z"
     style="fill:#bc1142"
     id="path3854"
     inkscape:connector-curvature="0" />
  <path
     d="m 11.820232,60.743422 c 6.497261,-1.74089 2.193145,26.87755 -3.0927353,24.52932 -5.8143429,-4.67703 -7.6871614,-18.37354 3.0927353,-24.52932 z"
     style="fill:#bc1142"
     id="path3856"
     inkscape:connector-curvature="0" />
  <path
     d="m 86.896398,60.386572 c -6.497262,-1.74089 -2.193147,26.87755 3.092735,24.52932 5.814347,-4.67704 7.687157,-18.37354 -3.092735,-24.52932 z"
     style="fill:#bc1142"
     id="path3858"
     inkscape:connector-curvature="0" />
  <path
     d="m 64.823845,39.076312 c 11.211404,-1.89313 20.539734,4.76796 20.164225,16.92517 -0.368795,4.6607 -24.294324,-16.23129 -20.164225,-16.92517 z"
     style="fill:#bc1142"
     id="path3860"
     inkscape:connector-curvature="0" />
  <path
     d="m 33.846893,38.719462 c -11.211404,-1.89313 -20.539734,4.76796 -20.164225,16.92517 0.368795,4.6607 24.294324,-16.23129 20.164225,-16.92517 z"
     style="fill:#bc1142"
     id="path3862"
     inkscape:connector-curvature="0" />
  <path
     d="m 49.951593,35.882882 c -6.691456,-0.17405 -13.113542,4.96636 -13.128904,7.94791 -0.01867,3.62282 5.29056,7.33202 13.174524,7.42617 8.051148,0.0577 13.188503,-2.9691 13.214463,-6.70778 0.02941,-4.23584 -7.322408,-8.73174 -13.260083,-8.6663 z"
     style="fill:#bc1142"
     id="path3864"
     inkscape:connector-curvature="0" />
  <path
     d="m 50.360198,110.17273 c 5.83409,-0.25463 13.662265,1.87918 13.677605,4.70974 0.09683,2.7487 -7.099535,8.9589 -14.064708,8.83883 -7.2133,0.31116 -14.286446,-5.9087 -14.193741,-8.06462 -0.107959,-3.161 8.783223,-5.629 14.580844,-5.48395 z"
     style="fill:#bc1142"
     id="path3866"
     inkscape:connector-curvature="0" />
  <path
     d="m 28.811517,93.398312 c 4.153609,5.0041 6.046992,13.795758 2.580681,16.387318 -3.279331,1.97836 -11.243061,1.16363 -16.903455,-6.96784 -3.817444,-6.823328 -3.325439,-13.766778 -0.64517,-15.806658 4.008248,-2.44164 10.201254,0.85627 14.967944,6.38718 z"
     style="fill:#bc1142"
     id="path3868"
     inkscape:connector-curvature="0" />
  <path
     d="m 71.077572,91.811752 c -4.493996,5.26388 -6.996508,14.864628 -3.718025,17.957348 3.134647,2.40226 11.549405,2.06647 17.765153,-6.5582 4.513475,-5.792568 3.001157,-15.466408 0.423008,-18.034478 -3.829761,-2.96226 -9.327586,0.82877 -14.470136,6.63533 z"
     style="fill:#bc1142"
     id="path3870"
     inkscape:connector-curvature="0" />
</svg>
